:FULLY-SPECIFIED
:DEGREES
149
root 4.50096 16.5176 -2.28346 -52.3058 -86.4884 57.6468
lowerback 2.77995 -0.56524 -4.89622
upperback 1.28596 -0.892096 -0.0704208
thorax -0.162927 -0.472279 2.69769
lowerneck -16.8883 -1.49168 -1.75443
upperneck 17.9921 -2.79375 5.08972
head 8.4914 -0.949336 1.65763
rclavicle 1.19892e-014 2.127e-014
rhumerus -30.7439 -2.64353 -82.7025
rradius 22.7317
rwrist 27.6523
rhand -26.3947 2.38767
rfingers 7.12502
rthumb 0.164548 -27.592
lclavicle 1.19892e-014 2.127e-014
lhumerus -23.4734 2.43636 87.7292
lradius 20.3815
lwrist -16.7238
lhand -26.5447 1.89316
lfingers 7.12502
lthumb 0.0196912 31.8729
rfemur -30.0873 -0.202008 18.6579
rtibia 40.2957
rfoot -13.974 -14.3966
rtoes -18.8562
lfemur -7.18809 -11.9583 -29.0489
ltibia 18.6933
lfoot -14.6662 0.724665
ltoes -2.69775
150
root 4.50832 16.5245 -2.28744 -52.4634 -86.49 57.9415
lowerback 2.69582 -0.5467 -4.96825
upperback 1.26362 -0.86458 -0.071102
thorax -0.139889 -0.458797 2.73573
lowerneck -16.9303 -1.52726 -1.79159
upperneck 17.9442 -2.84659 5.1689
head 8.48665 -0.968205 1.68364
rclavicle 4.02539e-015 4.27387e-015
rhumerus -30.7959 -2.93696 -82.5873
rradius 22.5779
rwrist 27.9391
rhand -26.2797 2.38625
rfingers 7.12502
rthumb 0.275554 -27.5933
lclavicle 4.02539e-015 4.27387e-015
lhumerus -23.357 1.98357 87.873
lradius 20.8385
lwrist -16.1623
lhand -26.7367 1.83519
lfingers 7.12502
lthumb -0.16582 31.8149
rfemur -30.1746 0.812699 18.3766
rtibia 37.6716
rfoot -13.1414 -15.1012
rtoes -18.5018
lfemur -6.60517 -11.9524 -29.0902
ltibia 18.0352
lfoot -14.6832 0.811188
ltoes -2.94633
151
root 4.51616 16.5291 -2.29176 -52.971 -86.4196 58.623
lowerback 2.58964 -0.53671 -5.07757
upperback 1.23114 -0.848535 -0.109845
thorax -0.114026 -0.451048 2.75559
lowerneck -16.9533 -1.54805 -1.79955
upperneck 17.8576 -2.88163 5.23599
head 8.46421 -0.978569 1.70271
rclavicle 7.28049e-015 -4.07509e-015
rhumerus -30.8346 -3.08013 -82.577
rradius 22.4394
rwrist 27.848
rhand -26.1957 2.32948
rfingers 7.12502
rthumb 0.356774 -27.65
lclavicle 7.28049e-015 -4.07509e-015
lhumerus -23.2543 1.54592 87.9777
lradius 21.3111
lwrist -15.685
lhand -26.8373 1.80756
lfingers 7.12502
lthumb -0.26292 31.7871
rfemur -30.2996 1.72647 17.9838
rtibia 35.0836
rfoot -12.1282 -15.6498
rtoes -18.4044
lfemur -6.02984 -11.9037 -29.1916
ltibia 17.3406
lfoot -14.7225 0.747175
ltoes -2.85622
152
root 4.52237 16.5332 -2.29599 -53.5008 -86.3873 59.3153
lowerback 2.50169 -0.52414 -5.16018
upperback 1.18763 -0.82936 -0.130899
thorax -0.11017 -0.440825 2.77899
lowerneck -16.9521 -1.58028 -1.85647
upperneck 17.7541 -2.92396 5.32758
head 8.43312 -0.993812 1.73721
rclavicle 4.72114e-016 2.03257e-014
rhumerus -30.9168 -3.29584 -82.4856
rradius 22.2886
rwrist 28.2714
rhand -26.1428 2.34591
rfingers 7.12502
rthumb 0.407812 -27.6334
lclavicle 4.72114e-016 2.03257e-014
lhumerus -23.1758 1.24386 88.0635
lradius 21.6998
lwrist -15.3827
lhand -26.9614 1.79613
lfingers 7.12502
lthumb -0.382826 31.7755
rfemur -30.33 2.82334 17.5509
rtibia 32.5515
rfoot -11.1161 -16.1412
rtoes -17.6141
lfemur -5.40382 -11.9424 -29.2595
ltibia 16.5669
lfoot -14.6723 0.783021
ltoes -2.86852
153
root 4.52625 16.5312 -2.30121 -53.6348 -86.383 59.5832
lowerback 2.41359 -0.509957 -5.189
upperback 1.15688 -0.806333 -0.144548
thorax -0.0941995 -0.429034 2.7797
lowerneck -17.0259 -1.6145 -1.90116
upperneck 17.7599 -2.97126 5.38592
head 8.45186 -1.01169 1.75836
rclavicle 7.65321e-015 4.96962e-017
rhumerus -30.9798 -3.51995 -82.4136
rradius 22.115
rwrist 28.5516
rhand -26.092 2.37921
rfingers 7.12502
rthumb 0.456936 -27.6
lclavicle 7.65321e-015 4.96962e-017
lhumerus -23.1528 1.05404 88.1371
lradius 22.1144
lwrist -15.1514
lhand -27.2264 1.66649
lfingers 7.12502
lthumb -0.6388 31.6453
rfemur -30.312 3.82551 17.1826
rtibia 30.1187
rfoot -9.79577 -16.3735
rtoes -17.8292
lfemur -4.76143 -11.9231 -29.2937
ltibia 15.8509
lfoot -14.6959 0.802001
ltoes -2.83623
154
root 4.5299 16.5318 -2.30604 -53.9164 -86.4094 59.9888
lowerback 2.3498 -0.509591 -5.20398
upperback 1.12129 -0.802779 -0.138764
thorax -0.0950626 -0.426388 2.79346
lowerneck -17.0655 -1.61736 -1.91601
upperneck 17.7273 -2.9674 5.38341
head 8.44792 -1.01044 1.76019
rclavicle 8.99501e-015 2.46493e-014
rhumerus -31.0154 -3.54657 -82.4137
rradius 21.965
rwrist 28.6292
rhand -25.8969 2.26587
rfingers 7.12502
rthumb 0.645313 -27.7129
lclavicle 8.99501e-015 2.46493e-014
lhumerus -23.1184 0.899083 88.1953
lradius 22.4838
lwrist -14.889
lhand -27.3454 1.57962
lfingers 7.12502
lthumb -0.753664 31.558
rfemur -30.2879 4.98616 16.7638
rtibia 27.7906
rfoot -8.66292 -16.7125
rtoes -17.1599
lfemur -4.1643 -11.8213 -29.2989
ltibia 15.202
lfoot -14.7224 0.735076
ltoes -2.75506
155
root 4.53288 16.527 -2.30984 -54.6628 -86.4303 60.8563
lowerback 2.28192 -0.477284 -5.15819
upperback 1.08475 -0.755687 -0.182025
thorax -0.100016 -0.401646 2.7217
lowerneck -17.0789 -1.65768 -1.99649
upperneck 17.6568 -3.02429 5.5096
head 8.43231 -1.03019 1.8086
rclavicle -5.66536e-015 -1.2424e-016
rhumerus -31.0925 -3.7834 -82.3597
rradius 21.8061
rwrist 29.086
rhand -25.855 2.31003
rfingers 7.12502
rthumb 0.685837 -27.6686
lclavicle -5.66536e-015 -1.2424e-016
lhumerus -23.1336 0.572598 88.2594
lradius 22.8841
lwrist -14.4386
lhand -27.4085 1.67023
lfingers 7.12502
lthumb -0.814623 31.6484
rfemur -30.236 6.07779 16.3142
rtibia 25.6306
rfoot -7.6014 -16.9531
rtoes -16.6886
lfemur -3.56598 -11.7778 -29.3389
ltibia 14.6112
lfoot -14.7434 0.739257
ltoes -2.77968
156
root 4.53641 16.5246 -2.31633 -54.7161 -86.4689 61.0541
lowerback 2.18545 -0.473175 -5.10889
upperback 1.05694 -0.743817 -0.195925
thorax -0.0764718 -0.395364 2.67859
lowerneck -17.157 -1.67377 -1.95724
upperneck 17.6405 -3.0386 5.44004
head 8.43955 -1.03971 1.77659
rclavicle -1.19271e-015 1.05107e-014
rhumerus -31.1422 -3.8185 -82.3828
rradius 21.7327
rwrist 29.0078
rhand -25.6674 2.30904
rfingers 7.12502
rthumb 0.866973 -27.6689
lclavicle -1.19271e-015 1.05107e-014
lhumerus -23.0857 0.492316 88.2785
lradius 23.181
lwrist -14.1753
lhand -27.513 1.59811
lfingers 7.12502
lthumb -0.915538 31.5759
rfemur -30.2071 7.37661 15.8216
rtibia 23.6662
rfoot -6.76896 -17.5166
rtoes -15.925
lfemur -3.02073 -11.6779 -29.3124
ltibia 14.0541
lfoot -14.8281 0.641088
ltoes -2.57423
157
root 4.53909 16.5178 -2.32179 -54.8144 -86.4901 61.2245
lowerback 2.17237 -0.482918 -5.07849
upperback 1.04317 -0.755499 -0.185525
thorax -0.0826168 -0.400581 2.67244
lowerneck -17.2028 -1.6755 -2.05006
upperneck 17.5989 -3.02218 5.48672
head 8.43508 -1.03262 1.80944
rclavicle 2.18663e-015 -5.2181e-016
rhumerus -31.1245 -3.77523 -82.397
rradius 21.5759
rwrist 29.2123
rhand -25.6525 2.24516
rfingers 7.12502
rthumb 0.881346 -27.7328
lclavicle 2.18663e-015 -5.2181e-016
lhumerus -23.0608 0.558933 88.3249
lradius 23.3985
lwrist -13.9967
lhand -27.7566 1.51455
lfingers 7.12502
lthumb -1.15084 31.4912
rfemur -30.1268 8.38377 15.4276
rtibia 21.9391
rfoot -6.03463 -18.0117
rtoes -15.5565
lfemur -2.42336 -11.7277 -29.3387
ltibia 13.5714
lfoot -14.8675 0.671428
ltoes -2.50399
158
root 4.54072 16.5112 -2.32766 -54.8498 -86.5828 61.3261
lowerback 2.12285 -0.48715 -4.98363
upperback 1.04537 -0.755798 -0.161489
thorax -0.0535942 -0.40101 2.64342
lowerneck -17.1951 -1.6712 -2.0408
upperneck 17.4816 -2.99663 5.42604
head 8.39179 -1.02683 1.78989
rclavicle -8.52289e-015 1.66482e-014
rhumerus -31.1677 -3.70724 -82.4266
rradius 21.5596
rwrist 29.3029
rhand -25.4027 2.06865
rfingers 7.12502
rthumb 1.12264 -27.9081
lclavicle -8.52289e-015 1.66482e-014
lhumerus -23.0469 0.742312 88.3401
lradius 23.6164
lwrist -13.9369
lhand -27.8888 1.47821
lfingers 7.12502
lthumb -1.27855 31.4541
rfemur -30.0576 9.35295 15.1621
rtibia 20.47
rfoot -5.53806 -18.6459
rtoes -15.7378
lfemur -1.83134 -11.6014 -29.2967
ltibia 13.1158
lfoot -14.9947 0.707394
ltoes -2.72844
159
root 4.54105 16.5004 -2.33402 -55.3074 -86.6229 61.818
lowerback 2.10554 -0.456672 -4.88071
upperback 1.05652 -0.712203 -0.193672
thorax -0.0378831 -0.379406 2.55151
lowerneck -17.2356 -1.69477 -2.06704
upperneck 17.4117 -3.02293 5.4569
head 8.3775 -1.03746 1.80087
rclavicle 4.57205e-015 2.04997e-014
rhumerus -31.1422 -3.90773 -82.3805
rradius 21.3775
rwrist 29.5601
rhand -25.3924 2.20451
rfingers 7.12502
rthumb 1.13259 -27.7722
lclavicle 4.57205e-015 2.04997e-014
lhumerus -23.0377 0.540939 88.4028
lradius 23.7951
lwrist -13.5246
lhand -27.9438 1.40067
lfingers 7.12502
lthumb -1.33168 31.3763
rfemur -29.9654 9.99354 14.9977
rtibia 19.3453
rfoot -5.64595 -19.138
rtoes -15.5228
lfemur -1.17748 -11.6882 -29.3368
ltibia 12.6232
lfoot -15.0838 0.864994
ltoes -2.7695
160
root 4.54045 16.4897 -2.34134 -55.8765 -86.6514 62.384
lowerback 2.12643 -0.438045 -4.84275
upperback 1.06965 -0.687538 -0.186298
thorax -0.0384755 -0.367201 2.53749
lowerneck -17.2359 -1.70173 -2.06166
upperneck 17.348 -3.01078 5.37423
head 8.35391 -1.03986 1.77327
rclavicle -8.44835e-016 -9.7653e-015
rhumerus -31.1558 -3.99104 -82.3232
rradius 21.298
rwrist 29.8067
rhand -25.2553 2.14339
rfingers 7.12502
rthumb 1.26504 -27.8326
lclavicle -8.44835e-016 -9.7653e-015
lhumerus -23.0255 0.710711 88.4458
lradius 23.8612
lwrist -13.7061
lhand -28.0331 1.47273
lfingers 7.12502
lthumb -1.41792 31.4478
rfemur -29.8478 10.3961 14.9668
rtibia 18.5386
rfoot -5.98645 -19.4598
rtoes -15.4881
lfemur -0.50317 -11.6821 -29.3852
ltibia 12.1823
lfoot -15.1762 0.902601
ltoes -2.92235
161
root 4.53871 16.4797 -2.34938 -57.434 -86.617 63.9127
lowerback 2.16046 -0.445728 -4.94423
upperback 1.07858 -0.701464 -0.161089
thorax -0.045543 -0.374672 2.62089
lowerneck -17.2044 -1.66801 -2.11194
upperneck 17.2616 -2.93436 5.3259
head 8.31576 -1.01283 1.77432
rclavicle 5.39203e-015 7.20594e-015
rhumerus -31.1503 -3.93533 -82.2838
rradius 21.2123
rwrist 29.9759
rhand -25.2676 2.20933
rfingers 7.12502
rthumb 1.25309 -27.7667
lclavicle 5.39203e-015 7.20594e-015
lhumerus -23.0827 0.924332 88.5253
lradius 23.92
lwrist -13.5722
lhand -28.1972 1.45692
lfingers 7.12502
lthumb -1.57641 31.4308
rfemur -29.7299 10.6646 14.9383
rtibia 18.0581
rfoot -6.42259 -19.7019
rtoes -15.1282
lfemur 0.193936 -11.7844 -29.5499
ltibia 11.7656
lfoot -15.2927 1.11411
ltoes -3.18946
162
root 4.53848 16.4674 -2.35995 -58.3074 -86.5903 64.8106
lowerback 2.18989 -0.446365 -4.96999
upperback 1.07023 -0.705058 -0.182757
thorax -0.0702723 -0.375852 2.61348
lowerneck -17.2737 -1.65483 -2.03935
upperneck 17.2746 -2.91364 5.22842
head 8.3289 -1.00652 1.73198
rclavicle 2.68359e-015 -9.93923e-015
rhumerus -31.0894 -4.00085 -82.3205
rradius 21.0844
rwrist 30.0185
rhand -25.2757 2.11496
rfingers 7.12502
rthumb 1.24529 -27.8612
lclavicle 2.68359e-015 -9.93923e-015
lhumerus -23.0944 0.94827 88.5392
lradius 23.9097
lwrist -13.3937
lhand -28.1098 1.42732
lfingers 7.12502
lthumb -1.49194 31.4018
rfemur -29.7392 10.6232 15.1215
rtibia 17.9262
rfoot -6.51077 -19.785
rtoes -15.4649
lfemur 0.793338 -11.7049 -29.6421
ltibia 11.3661
lfoot -15.3466 1.08986
ltoes -3.55096
163
root 4.53449 16.4539 -2.3701 -58.2825 -86.5974 64.7555
lowerback 2.19648 -0.474086 -4.95227
upperback 1.11172 -0.740817 -0.147219
thorax -0.0281061 -0.395572 2.64061
lowerneck -17.304 -1.63104 -2.03639
upperneck 17.2156 -2.85039 5.10897
head 8.30964 -0.987894 1.69873
rclavicle 8.72168e-015 1.71452e-014
rhumerus -31.0349 -4.17765 -82.1872
rradius 21.0106
rwrist 30.4127
rhand -25.2537 2.1917
rfingers 7.12502
rthumb 1.26656 -27.7843
lclavicle 8.72168e-015 1.71452e-014
lhumerus -23.0912 1.14421 88.6067
lradius 23.8425
lwrist -13.4515
lhand -28.2577 1.5019
lfingers 7.12502
lthumb -1.63483 31.4754
rfemur -29.6665 10.4463 15.4547
rtibia 18.1013
rfoot -6.76978 -19.7791
rtoes -15.2514
lfemur 1.47313 -11.7111 -29.689
ltibia 10.9894
lfoot -15.4069 1.1206
ltoes -3.51376
